<svg id="Capa_1" enable-background="new 0 0 512 512" height="512" viewBox="0 0 512 512" width="512" xmlns="http://www.w3.org/2000/svg"><g><g><path d="m110.231 199.8c95.495 25.588 196.043 25.588 291.538 0l59.96-34.725c-8.841-17.021-28.742-26.976-48.922-21.569-102.726 27.525-210.888 27.525-313.614 0-20.18-5.407-40.081 4.548-48.922 21.569z" fill="#ffcbbe"/></g><g><path d="m450.362 166.75-48.593 13.02c-95.495 25.588-196.043 25.588-291.538 0l-48.593-13.02c-31.099-8.333-61.638 15.1-61.638 47.296 0 22.162 14.885 41.561 36.292 47.297l10.119 2.711h419.179l10.119-2.711c21.406-5.736 36.291-25.135 36.291-47.297 0-32.196-30.539-55.629-61.638-47.296z" fill="#dd636e"/></g><g><path d="m256 252.311c-8.568 0-17.134-2.709-24.284-8.13l-25.604-19.41c-4.226-3.205-9.854-3.837-14.684-1.646l-31.602 14.32c-16.466 7.46-36.017 2.947-47.547-10.973l-14.806-17.876c-4.291-5.182-11.497-6.715-17.528-3.732l-28.404 14.058c-6.373 3.154-14.098.545-17.253-5.829-3.154-6.374-.545-14.099 5.829-17.254l28.402-14.057c16.781-8.307 36.843-4.035 48.788 10.385l14.805 17.876c4.142 5.001 11.168 6.624 17.083 3.943l31.602-14.32c13.447-6.093 29.108-4.339 40.873 4.581l25.604 19.41c5.138 3.893 12.312 3.893 17.449 0l25.605-19.41c11.764-8.92 27.426-10.674 40.873-4.581l31.602 14.32c5.915 2.681 12.94 1.059 17.083-3.943l14.805-17.876c11.945-14.421 32.007-18.692 48.789-10.384l28.401 14.056c6.374 3.155 8.984 10.879 5.829 17.254-3.154 6.375-10.881 8.984-17.253 5.829l-28.403-14.057c-6.03-2.986-13.237-1.45-17.529 3.731l-14.805 17.875c-11.531 13.922-31.083 18.433-47.547 10.974l-31.602-14.32c-4.831-2.191-10.458-1.557-14.684 1.646l-25.605 19.41c-7.147 5.42-15.716 8.129-24.282 8.13z" fill="#ffe07d"/></g><g><path d="m412.807 349.326c-102.726 27.525-210.888 27.525-313.614 0-31.666-8.485-53.685-37.18-53.685-69.963v-6.496c0-28.041 26.599-48.451 53.685-41.194 102.726 27.525 210.888 27.525 313.614 0 27.086-7.258 53.685 13.152 53.685 41.194v6.496c0 32.783-22.019 61.478-53.685 69.963z" fill="#ffcbbe"/></g><g><path d="m419.311 230.45c3.775 6.323 5.973 13.753 5.973 21.814v6.496c0 32.783-22.019 61.478-53.685 69.963-99.632 26.696-204.378 27.5-304.318 2.412 8.681 8.5 19.563 14.883 31.912 18.192 102.726 27.525 210.888 27.525 313.614 0 31.666-8.485 53.685-37.18 53.685-69.963v-6.496c0-25.79-22.497-45.124-47.181-42.418z" fill="#eaac9d"/></g></g></svg>